<svg height="128" width="128" xmlns="http://www.w3.org/2000/svg"><linearGradient id="a" gradientUnits="userSpaceOnUse" x1="8" x2="120" y1="68" y2="68"><stop offset="0" stop-color="#9a9996"/><stop offset=".036" stop-color="#c0bfbc"/><stop offset=".071" stop-color="#9a9996"/><stop offset=".925" stop-color="#9a9996"/><stop offset=".962" stop-color="#c0bfbc"/><stop offset="1" stop-color="#9a9996"/></linearGradient><radialGradient id="b" cx="16" cy="15.5" gradientTransform="matrix(4 0 0 2.6 0 25.7)" gradientUnits="userSpaceOnUse" r="10"><stop offset="0" stop-color="#3d3846"/><stop offset="1" stop-color="#241f31"/></radialGradient><linearGradient id="c" gradientUnits="userSpaceOnUse" x1="36" x2="36" y1="44" y2="52"><stop offset="0" stop-color="#e5a50a"/><stop offset="1" stop-color="#f6d32d" stop-opacity="0"/></linearGradient><g stroke-width="4"><rect fill="url(#a)" height="88" ry="8" width="112" x="8" y="24"/><rect fill="#deddda" height="88" ry="8" width="112" x="8" y="20"/><path d="M24 40v44h24v8h32v-8h24V40z" fill="url(#b)"/><path d="M36 44v8h8v-8zm12 0v8h8v-8zm12 0v8h8v-8zm12 0v8h8v-8zm12 0v8h8v-8z" fill="url(#c)"/><path d="M22.072 88h12v8h-12z" fill="#e5a50a"/><path d="M92 88h12v8H92z" fill="#26a269"/></g></svg>